<?xml version="1.0" encoding="UTF-8"?>
<svg id="Layer_2" data-name="Layer 2" xmlns="http://www.w3.org/2000/svg" viewBox="0 0 420.4177 78">
  <defs>
    <style>
      .cls-1 {
        fill: #35d7ff;
        stroke: #35d7ff;
        stroke-miterlimit: 10;
        stroke-width: 2px;
      }
    </style>
  </defs>
  <g id="Layer_1-2" data-name="Layer 1">
    <g>
      <path class="cls-1" d="M23.7002,77c-5.2676,0-9.3003-1.5-12.1001-4.5-2.8003-3-4.2002-7.333-4.2002-13V5.3994H1v-3.3994h20.7998v3.3994h-7.3999v54.2002c0,4.2676.9502,7.5498,2.8501,9.8506,1.8999,2.2998,4.6499,3.4492,8.25,3.4492s6.3501-1.1494,8.25-3.4492c1.8999-2.3008,2.8501-5.583,2.8501-9.8506V5.3994h-5.8999v-3.3994h15.1997v3.3994h-5.8999v54.1006c0,5.667-1.3843,10-4.1499,13-2.7671,3-6.8174,4.5-12.1499,4.5Z"/>
      <path class="cls-1" d="M87.5,77l-25.5-59.6006v55.2002h8.3999v3.4004h-18.1997v-3.4004h6.3999V5.3994h-6.3999v-3.3994h10.1997l24.1001,56.3994V5.3994h-8.3999v-3.3994h18.1997v3.3994h-6.3999v71.6006h-2.3999Z"/>
      <path class="cls-1" d="M103.7002,76v-3.4004h16.3999V5.3994h-16.3999v-3.3994h39.7998v3.3994h-16.3999v67.2002h16.3999v3.4004h-39.7998Z"/>
      <path class="cls-1" d="M150.1001,76v-3.4004h7.1001l12.5996-32.8994-13.1997-34.3008h-7.1001v-3.3994h21.2998v3.3994h-7l10.1001,26.3008,10.1001-26.3008h-5.5v-3.3994h15.7998v3.3994h-7.0996l-11.7002,30.4004,14.2002,36.7998h7.0996v3.4004h-22v-3.4004h7.7002l-11.1001-28.7002-11,28.7002h6v3.4004h-16.2998Z"/>
      <path class="cls-1" d="M231.6179,76v-3.2002h13.8999V5.5h-5.8999c-4.9341,0-7.6997,2.3994-8.2998,7.2002l-1.3999,10.6992h-2.8003V1h1.8003l3,1h34.1997l3-1h1.8003v22.3994h-2.8003l-1.3999-10.6992c-.6001-4.8008-3.3672-7.2002-8.2998-7.2002h-5.9004v67.2998h13.9004v3.2002h-34.8003Z"/>
      <path class="cls-1" d="M279.4182,76v-3.4004h16.3999V5.3994h-16.3999v-3.3994h39.7993v3.3994h-16.3994v67.2002h16.3994v3.4004h-39.7993Z"/>
      <path class="cls-1" d="M324.3172,76v-3.4004h6V5.3994h-6v-3.3994h9.8008l14.5,62.3994,14.5-62.3994h11.2998v3.3994h-6.4004v67.2002h6.4004v3.4004h-18.6006v-3.4004h5.4004V23.3994l-12.2002,52.6006h-3.0996l-12.2002-52.6006v49.2002h6.4004v3.4004h-15.8008Z"/>
      <path class="cls-1" d="M377.3172,76v-3.4004h8.4004V5.3994h-8.4004v-3.3994h41.1006v21.3994h-2.7998l-1.4004-10.6992c-.5996-4.8008-3.3672-7.2002-8.2998-7.2002h-13.2002v28.3994h12.9004v-12.6992h3.1992v28.7998h-3.1992v-12.7002h-12.9004v35.2002h14.2002c4.8652,0,7.5996-2.4326,8.2002-7.2998l1.5-12.6006h2.7998v23.4004h-42.1006Z"/>
    </g>
  </g>
</svg>